<?xml version="1.0" encoding="utf-8"?>
<!-- Generator: Adobe Illustrator 16.0.4, SVG Export Plug-In . SVG Version: 6.00 Build 0)  -->
<!DOCTYPE svg PUBLIC "-//W3C//DTD SVG 1.1//EN" "http://www.w3.org/Graphics/SVG/1.1/DTD/svg11.dtd">
<svg version="1.1" xmlns="http://www.w3.org/2000/svg" xmlns:xlink="http://www.w3.org/1999/xlink" x="0px" y="0px" width="2000px"
	 height="2000px" viewBox="0 0 2000 2000" enable-background="new 0 0 2000 2000" xml:space="preserve">
<g id="Hintergrund_xA0_Bild_1_" display="none">
	
		<image display="inline" overflow="visible" width="2000" height="2000" id="Hintergrund_xA0_Bild" xlink:href="7D348B1C4BD1F32D.jpg"  transform="matrix(1 0 0 1 220 -184)">
	</image>
</g>
<g id="Grün_1_">
	<g>
		<path fill="#2EA1E2" d="M1223,994c0-123.159-99.841-223-223-223s-223,99.841-223,223c0,96.478,61.271,178.639,147.02,209.713
			c1.525-18.564,3.124-36.834,4.799-54.703c-56.058-26.652-94.814-83.799-94.814-150.005c0-91.685,74.318-166.009,165.995-166.009
			s165.995,74.324,165.995,166.009c0,65.45-37.878,122.044-92.901,149.078c1.686,17.934,3.293,36.273,4.827,54.911
			C1162.651,1171.39,1223,1089.747,1223,994z"/>
		<path fill="#2EA1E2" d="M1000.5,626C793.67,626,626,793.67,626,1000.5c0,176.637,122.292,324.706,286.825,364.174
			c1.275-21.65,2.631-43.319,4.072-64.857C782.671,1263.146,684,1140.355,684,994.5C684,819.702,825.702,678,1000.5,678
			S1317,819.702,1317,994.5c0,145.5-98.189,268.051-231.914,305.051c1.441,21.548,2.799,43.228,4.075,64.89
			C1253.197,1324.618,1375,1176.784,1375,1000.5C1375,793.67,1207.33,626,1000.5,626z"/>
	</g>
	<path fill="#424343" d="M1079,998.5c0-43.354-35.146-78.5-78.5-78.5S922,955.146,922,998.5c0,34.648,22.458,64.033,53.604,74.445
		C962.806,1188.468,960,1373,960,1373s19.599,2,39.395,2c20.2,0,40.605-2,40.605-2s-2.801-184.186-15.568-299.729
		C1056.08,1063.15,1079,1033.507,1079,998.5z"/>
	<polygon fill="#424343" points="462.791,958.209 462.791,841 382.209,841 382.209,958.209 265,958.209 265,1038.791 
		382.209,1038.791 382.209,1156 462.791,1156 462.791,1038.791 580,1038.791 580,958.209 	"/>
	<polygon fill="#424343" points="1735,960.209 1617.791,960.209 1617.791,843 1537.209,843 1537.209,960.209 1420,960.209 
		1420,1040.791 1537.209,1040.791 1537.209,1158 1617.791,1158 1617.791,1040.791 1735,1040.791 	"/>
	<g id="Plusplus">
		<text transform="matrix(1 0 0 1 926.6279 1602.4609)" fill="#424343" font-family="'Code-Bold'" font-size="160">Plusplus</text>
	</g>
	<g id="Denken">
		<text transform="matrix(1 0 0 1 392.1899 1603.4004)" fill="#2EA1E2" font-family="'Code-Bold'" font-size="160">Denken</text>
	</g>
</g>
</svg>
