<?xml version="1.0" encoding="utf-8"?>
<!-- Generator: Adobe Illustrator 16.0.4, SVG Export Plug-In . SVG Version: 6.00 Build 0)  -->
<!DOCTYPE svg PUBLIC "-//W3C//DTD SVG 1.1//EN" "http://www.w3.org/Graphics/SVG/1.1/DTD/svg11.dtd">
<svg version="1.1" xmlns="http://www.w3.org/2000/svg" xmlns:xlink="http://www.w3.org/1999/xlink" x="0px" y="0px" width="2000px"
	 height="2000px" viewBox="0 0 2000 2000" enable-background="new 0 0 2000 2000" xml:space="preserve">
<g id="Hintergrund_xA0_Bild_1_" display="none">
	
		<image display="inline" overflow="visible" width="2000" height="2000" id="Hintergrund_xA0_Bild" xlink:href="DD37BB9F4983F19.jpg"  transform="matrix(1 0 0 1 220 -184)">
	</image>
</g>
<g id="Grün_1_">
	<rect x="626" y="626" display="none" fill="#424343" width="749" height="749"/>
	<g>
		<path fill="#2EA1E2" d="M904.175,797.471c0-57.386-46.521-103.908-103.908-103.908c-57.386,0-103.908,46.521-103.908,103.908
			c0,44.954,28.549,83.237,68.504,97.717c0.711-8.65,1.456-17.163,2.236-25.489c-26.12-12.419-44.179-39.046-44.179-69.896
			c0-42.721,34.629-77.353,77.346-77.353s77.346,34.632,77.346,77.353c0,30.497-17.649,56.867-43.288,69.463
			c0.786,8.356,1.535,16.902,2.249,25.586C876.055,880.126,904.175,842.085,904.175,797.471z"/>
		<path fill="#2EA1E2" d="M800.5,626C704.127,626,626,704.127,626,800.5c0,82.305,56.982,151.298,133.647,169.688
			c0.594-10.088,1.226-20.185,1.897-30.221c-62.543-17.087-108.52-74.301-108.52-142.264c0-81.448,66.027-147.475,147.475-147.475
			s147.475,66.027,147.475,147.475c0,67.796-45.752,124.899-108.062,142.14c0.672,10.041,1.304,20.143,1.899,30.236
			C918.245,951.524,975,882.64,975,800.5C975,704.127,896.873,626,800.5,626z"/>
	</g>
	<path fill="#424343" d="M837.078,799.568c0-20.201-16.376-36.577-36.578-36.577s-36.578,16.376-36.578,36.577
		c0,16.145,10.464,29.836,24.977,34.688c-5.963,53.828-7.271,139.812-7.271,139.812S790.761,975,799.985,975
		c9.413,0,18.92-0.932,18.92-0.932s-1.305-85.822-7.254-139.66C826.398,829.692,837.078,815.88,837.078,799.568z"/>
	<g>
		<path fill="#F9B203" d="M1304.176,795.065c0-57.386-46.521-103.908-103.908-103.908s-103.908,46.521-103.908,103.908
			c0,44.954,28.549,83.237,68.504,97.717c0.711-8.65,1.456-17.163,2.236-25.489c-26.119-12.419-44.179-39.046-44.179-69.896
			c0-42.721,34.629-77.353,77.347-77.353c42.717,0,77.346,34.632,77.346,77.353c0,30.497-17.649,56.867-43.288,69.463
			c0.786,8.356,1.534,16.902,2.249,25.586C1276.055,877.721,1304.176,839.679,1304.176,795.065z"/>
		<path fill="#F9B203" d="M1200.5,623.594c-96.373,0-174.5,78.127-174.5,174.5c0,82.305,56.982,151.298,133.647,169.688
			c0.595-10.088,1.226-20.185,1.897-30.221c-62.543-17.087-108.52-74.301-108.52-142.264c0-81.448,66.027-147.475,147.475-147.475
			s147.475,66.027,147.475,147.475c0,67.796-45.752,124.899-108.062,142.14c0.672,10.041,1.304,20.143,1.899,30.236
			c76.433-18.556,133.188-87.44,133.188-169.58C1375,701.721,1296.873,623.594,1200.5,623.594z"/>
	</g>
	<path fill="#424343" d="M1237.078,797.162c0-20.201-16.377-36.577-36.578-36.577s-36.578,16.376-36.578,36.577
		c0,16.145,10.465,29.836,24.978,34.688c-5.964,53.828-7.271,139.812-7.271,139.812s9.132,0.932,18.355,0.932
		c9.413,0,18.921-0.932,18.921-0.932s-1.306-85.822-7.255-139.66C1226.398,827.287,1237.078,813.474,1237.078,797.162z"/>
	<g>
		<path fill="#E2521F" d="M1303.943,1197.472c0-57.386-46.521-103.907-103.908-103.907s-103.908,46.521-103.908,103.907
			c0,44.954,28.549,83.237,68.504,97.717c0.711-8.649,1.456-17.163,2.236-25.489c-26.119-12.419-44.179-39.047-44.179-69.896
			c0-42.721,34.629-77.353,77.347-77.353c42.717,0,77.346,34.632,77.346,77.353c0,30.497-17.649,56.866-43.288,69.464
			c0.786,8.355,1.534,16.902,2.249,25.586C1275.822,1280.127,1303.943,1242.086,1303.943,1197.472z"/>
		<path fill="#E2521F" d="M1200.268,1026c-96.373,0-174.5,78.127-174.5,174.5c0,82.305,56.982,151.299,133.647,169.689
			c0.595-10.088,1.226-20.186,1.897-30.221c-62.543-17.088-108.52-74.302-108.52-142.264c0-81.448,66.027-147.475,147.475-147.475
			s147.475,66.026,147.475,147.475c0,67.796-45.752,124.898-108.062,142.139c0.672,10.041,1.304,20.143,1.899,30.236
			c76.433-18.555,133.188-87.439,133.188-169.58C1374.768,1104.127,1296.641,1026,1200.268,1026z"/>
	</g>
	<path fill="#424343" d="M1236.846,1199.568c0-20.201-16.377-36.577-36.578-36.577s-36.578,16.376-36.578,36.577
		c0,16.145,10.465,29.836,24.978,34.688c-5.964,53.827-7.271,139.812-7.271,139.812s9.132,0.932,18.355,0.932
		c9.413,0,18.921-0.932,18.921-0.932s-1.306-85.822-7.255-139.66C1226.166,1229.693,1236.846,1215.881,1236.846,1199.568z"/>
	<g>
		<path fill="#95C502" d="M904.176,1195.066c0-57.386-46.521-103.907-103.908-103.907s-103.908,46.521-103.908,103.907
			c0,44.954,28.549,83.237,68.504,97.717c0.711-8.649,1.456-17.163,2.236-25.489c-26.119-12.419-44.179-39.047-44.179-69.896
			c0-42.721,34.629-77.353,77.347-77.353c42.717,0,77.346,34.632,77.346,77.353c0,30.497-17.649,56.866-43.288,69.464
			c0.786,8.355,1.534,16.902,2.249,25.586C876.055,1277.722,904.176,1239.681,904.176,1195.066z"/>
		<path fill="#95C502" d="M800.5,1023.595c-96.373,0-174.5,78.127-174.5,174.5c0,82.305,56.982,151.299,133.647,169.689
			c0.595-10.088,1.226-20.186,1.897-30.221c-62.543-17.088-108.52-74.302-108.52-142.264c0-81.448,66.027-147.475,147.475-147.475
			s147.475,66.026,147.475,147.475c0,67.796-45.752,124.898-108.062,142.139c0.672,10.041,1.304,20.143,1.899,30.236
			C918.245,1349.12,975,1280.235,975,1198.095C975,1101.722,896.873,1023.595,800.5,1023.595z"/>
	</g>
	<path fill="#424343" d="M837.078,1197.163c0-20.201-16.377-36.577-36.578-36.577s-36.578,16.376-36.578,36.577
		c0,16.145,10.465,29.836,24.978,34.688c-5.964,53.827-7.271,139.812-7.271,139.812s9.132,0.932,18.355,0.932
		c9.413,0,18.921-0.932,18.921-0.932s-1.306-85.822-7.255-139.66C826.398,1227.288,837.078,1213.476,837.078,1197.163z"/>
	<polygon fill="#424343" points="462.791,958.209 462.791,841 382.209,841 382.209,958.209 265,958.209 265,1038.791 
		382.209,1038.791 382.209,1156 462.791,1156 462.791,1038.791 580,1038.791 580,958.209 	"/>
	<polygon fill="#424343" points="1735,960.209 1617.791,960.209 1617.791,843 1537.209,843 1537.209,960.209 1420,960.209 
		1420,1040.791 1537.209,1040.791 1537.209,1158 1617.791,1158 1617.791,1040.791 1735,1040.791 	"/>
	<g id="Plusplus">
	</g>
	<g id="Denken">
		<text transform="matrix(1 0 0 1 476.8862 1603.4307)" fill="#7A7A7A" font-family="'Code-Bold'" font-size="160">Team</text>
		<text transform="matrix(1 0 0 1 851.959 1603.4307)" fill="#424343" font-family="'Code-Bold'" font-size="160">PlusPlus</text>
	</g>
</g>
</svg>
